{"title":"The Mask 2 Son Of The Mask (2005).XViD.[nashabhu]","uid":6413484,"size":737325611,"categoryP":"video","categoryS":"hd___movies","magnet":"?xt=urn:btih:cdc7dc37c017913d2ea21b98d64dadbda6c04d97&amp;dn=+The+Mask+2+Son+Of+The+Mask+%282005%29.XViD.%5Bnashabhu%5D&amp;tr=udp%3A%2F%2Ftracker.openbittorrent.com%3A80&amp;tr=udp%3A%2F%2Fopen.demonii.com%3A1337&amp;tr=udp%3A%2F%2Ftracker.coppersurfer.tk%3A6969&amp;tr=udp%3A%2F%2Fexodus.desync.com%3A6969","seeders":0,"leechers":1,"uploader":"nashabhu","files":4,"time":1306081382,"description":"\nFormat                           : AVI\nFormat/Info                      : Audio Video Interleave\nFile size                        : 700 MiB\nDuration                         : 1h 34mn\nOverall bit rate                 : 1 035 Kbps\nWriting application              : VirtualDubMod 1.5.4.1 (build 2178/release)\nWriting library                  : VirtualDubMod build 2178/release\n\nVideo\nID                               : 0\nFormat                           : MPEG-4 Visual\nFormat profile                   : Simple@L0\nFormat settings, BVOP            : No\nFormat settings, QPel            : No\nFormat settings, GMC             : No warppoints\nFormat settings, Matrix          : Default (H.263)\nCodec ID                         : XVID\nCodec ID/Hint                    : XviD\nDuration                         : 1h 34mn\nBit rate                         : 842 Kbps\nWidth                            : 384 pixels\nHeight                           : 208 pixels\nDisplay aspect ratio             : 16:9\nFrame rate                       : 23.976 fps\nColor space                      : YUV\nChroma subsampling               : 4:2:0\nBit depth                        : 8 bits\nScan type                        : Progressive\nCompression mode                 : Lossy\nBits/(Pixel*Frame)               : 0.440\nStream size                      : 570 MiB (81%)\nWriting library                  : XviD 1.0.3 (UTC 2004-12-20)\n\nAudio\nID                               : 1\nFormat                           : MPEG Audio\nFormat version                   : Version 1\nFormat profile                   : Layer 3\nMode                             : Joint stereo\nMode extension                   : MS Stereo\nCodec ID                         : 55\nCodec ID/Hint                    : MP3\nDuration                         : 1h 34mn\nBit rate mode                    : Variable\nBit rate                         : 180 Kbps\nNominal bit rate                 : 192 Kbps\nChannel(s)                       : 2 channels\nSampling rate                    : 48.0 KHz\nCompression mode                 : Lossy\nStream size                      : 122 MiB (17%)\nAlignment                        : Aligned on interleaves\nInterleave, duration             : 24 ms (0.58 video frame)\nInterleave, preload duration     : 102 ms\nWriting library                  : LAME3.97 \nEncoding settings                : -m j -V 4 -q 2 -lowpass 18.6 --abr 192\n\n\n\n\nplz.....seed after you download...........!!","torrent":{"xt":"urn:btih:cdc7dc37c017913d2ea21b98d64dadbda6c04d97","amp;dn":"+The+Mask+2+Son+Of+The+Mask+%282005%29.XViD.%5Bnashabhu%5D","amp;tr":["udp%3A%2F%2Ftracker.openbittorrent.com%3A80","udp%3A%2F%2Fopen.demonii.com%3A1337","udp%3A%2F%2Ftracker.coppersurfer.tk%3A6969","udp%3A%2F%2Fexodus.desync.com%3A6969"],"infoHash":"cdc7dc37c017913d2ea21b98d64dadbda6c04d97","infoHashBuffer":{"type":"Buffer","data":[205,199,220,55,192,23,145,61,46,162,27,152,214,77,173,189,166,192,77,151]},"announce":[],"urlList":[]}}